<svg width="49" height="50" viewBox="0 0 49 50" fill="none" xmlns="http://www.w3.org/2000/svg">
<path d="M42.5264 37.0484C40.1202 51.3147 19.6151 51 12.501 39.8807C9.57175 35.2651 9.99022 29.7055 8.10709 24.6704C6.64244 20.6842 -1.20389 11.0335 4.75933 7.88655C4.75933 7.78165 4.75933 7.78166 4.75933 7.67676C4.75933 6.83757 4.96856 6.20817 5.1778 5.47388C-0.0530952 7.25716 -0.0530953 13.4462 2.03926 17.7471C4.55009 22.8871 6.64245 27.083 7.79324 32.7476C8.63019 36.8386 9.8856 40.5101 12.8149 43.5521C22.8582 53.9371 43.7818 52.049 44.828 35.2651C44.828 35.2651 44.828 35.2651 44.828 35.1602C44.0956 35.8945 43.3633 36.5239 42.5264 37.0484Z" fill="white" fill-opacity="0.1"/>
<path d="M47.8619 30.4399C45.6649 41.9787 31.5415 45.3355 22.4397 39.7759C17.4181 36.7338 13.7565 31.5938 11.7687 26.139C10.1994 21.8382 9.15326 18.3765 6.01473 14.81C4.65469 13.2365 3.19004 11.5581 2.98081 9.35522C2.56233 4.42498 7.89785 1.06821 12.1872 0.753513C17.8366 0.333918 22.2305 4.11028 23.7998 9.25032C26.8337 11.5581 32.9015 10.5091 36.3539 11.7679C38.8648 12.6071 41.1663 14.0757 43.0495 15.8589C46.9203 19.5304 48.8035 25.09 47.8619 30.4399ZM42.631 18.3765C38.9694 14.0757 34.1569 13.0267 28.8214 12.6071C26.5198 12.3973 24.6367 12.3973 22.9628 11.1385C22.5444 11.1385 22.1259 10.9287 22.0213 10.4042L21.9167 10.2993C21.6028 9.98461 21.6028 9.56501 21.7074 9.25032C20.6612 6.31315 18.5689 3.90049 15.2211 3.0613C9.04865 1.48782 2.45772 7.57194 7.47938 13.2365C9.78097 15.8589 11.3502 17.7471 12.3964 21.1039C15.3257 29.9154 19.9289 39.1465 30.2861 40.1954C42.4218 41.4542 51.1051 28.3419 42.631 18.3765Z" fill="white" fill-opacity="0.1"/>
<path d="M39.8064 24.3557C38.2371 19.8451 34.157 17.7471 29.6584 17.4324C27.2522 17.3275 25.0552 18.0618 23.3813 19.7402C21.9167 21.2088 21.289 23.4116 21.4982 25.4047C21.4982 26.4537 21.8121 27.3978 22.3352 28.3419C24.2183 31.4888 27.2522 33.377 30.8092 33.9015C32.9016 34.2162 35.2032 33.9015 36.9817 32.8525C39.911 31.279 40.8525 27.3978 39.8064 24.3557Z" fill="white" fill-opacity="0.1"/>
<path d="M24.1137 44.811C23.486 44.811 23.486 45.86 24.1137 45.86C24.846 45.86 24.846 44.811 24.1137 44.811Z" fill="white" fill-opacity="0.1"/>
<path d="M28.7168 44.811H28.403C27.7753 44.811 27.7753 45.86 28.403 45.86H28.7168C29.3445 45.86 29.3445 44.811 28.7168 44.811Z" fill="white" fill-opacity="0.1"/>
<path d="M22.0212 41.8738C20.6612 41.8738 20.6612 43.9717 22.0212 43.9717C23.3813 43.9717 23.3813 41.8738 22.0212 41.8738Z" fill="white" fill-opacity="0.1"/>
<path d="M32.9016 43.6572C31.5415 43.6572 31.5415 45.7552 32.9016 45.7552C34.157 45.7552 34.157 43.6572 32.9016 43.6572Z" fill="white" fill-opacity="0.1"/>
<path d="M26.9383 42.6082C25.5783 42.6082 25.5783 44.7061 26.9383 44.7061C28.2983 44.7061 28.2983 42.6082 26.9383 42.6082Z" fill="white" fill-opacity="0.1"/>
<path d="M19.3012 40.0906C17.9412 40.0906 17.9412 42.1886 19.3012 42.1886C20.6613 42.1886 20.6613 40.0906 19.3012 40.0906Z" fill="white" fill-opacity="0.1"/>
<path d="M12.9195 13.0266C10.9317 11.7678 10.1994 9.14535 11.4548 7.04737C12.1872 5.89348 10.304 4.84449 9.67633 5.99838C7.89782 9.04045 8.94401 13.0266 11.9779 14.8099C13.0241 15.5442 14.0703 13.7609 12.9195 13.0266Z" fill="white" fill-opacity="0.1"/>
<path d="M14.8026 16.0688C13.4426 16.0688 13.4426 18.1668 14.8026 18.1668C16.058 18.1668 16.1626 16.0688 14.8026 16.0688Z" fill="white" fill-opacity="0.1"/>
<path d="M32.9015 20.055C30.4953 19.5305 28.0891 19.6354 25.8921 20.5795C25.0552 20.8942 24.5321 21.6285 24.846 22.4677C25.0552 23.202 25.9968 23.9362 26.7291 23.5167C28.5076 22.7824 30.2861 22.5726 32.1692 22.9922C34.0523 23.5167 34.8893 20.4746 32.9015 20.055Z" fill="white" fill-opacity="0.1"/>
<path d="M35.9355 23.936C33.9477 23.936 33.9477 27.083 35.9355 27.083C38.0278 27.083 38.0278 23.936 35.9355 23.936Z" fill="white" fill-opacity="0.1"/>
</svg>
