<svg width="49" height="49" viewBox="0 0 49 49" fill="none" xmlns="http://www.w3.org/2000/svg">
<g clip-path="url(#clip0)">
<path d="M35.7388 1.77513L35.7381 1.77513C31.121 1.79687 26.8696 4.27635 24.5654 8.2743C21.6887 3.23493 15.7997 0.73079 10.1729 2.18152C4.47364 3.65082 0.491769 8.80389 0.496097 14.7031C0.496097 21.6169 4.62398 29.6464 9.67734 35.9386C12.2059 39.0872 14.9716 41.8075 17.5787 43.742C20.1803 45.6724 22.6439 46.835 24.5649 46.835C26.4859 46.835 28.9494 45.6724 31.551 43.742C34.1582 41.8075 36.9238 39.0872 39.4524 35.9386C44.5058 29.6464 48.6337 21.6169 48.6337 14.703V14.7028C48.6254 7.56661 42.8571 1.78341 35.7388 1.77513ZM2.34235 14.703V14.7029C2.33927 9.3602 6.14175 4.77788 11.3815 3.80859C16.6212 2.83971 21.8042 5.76024 23.7025 10.752L23.7026 10.7521C23.8391 11.1103 24.1821 11.3467 24.5649 11.3467C24.9477 11.3467 25.2907 11.1103 25.4272 10.7521L25.4272 10.752C27.3256 5.76024 32.5085 2.83971 37.7483 3.8086C42.988 4.77788 46.7905 9.3602 46.7874 14.7029V14.703C46.7874 21.2435 42.7193 28.817 37.8864 34.7656C35.4721 37.7372 32.8725 40.2963 30.5059 42.1112C29.3226 43.0187 28.1996 43.7385 27.189 44.2309C26.1765 44.7242 25.286 44.9847 24.5649 44.9847C23.8438 44.9847 22.9533 44.7242 21.9408 44.2309C20.9301 43.7385 19.8072 43.0187 18.6238 42.1112C16.2572 40.2963 13.6577 37.7372 11.2434 34.7656C6.4105 28.817 2.34235 21.2435 2.34235 14.703Z" fill="#1F1F1F" stroke="#1F1F1F" stroke-width="0.25"/>
<path d="M18.0549 18.7043C18.0549 19.2149 18.4679 19.6294 18.978 19.6294C19.4881 19.6294 19.9011 19.2149 19.9011 18.7043C19.9011 16.4256 18.0586 14.5784 15.7855 14.5784C13.5124 14.5784 11.6699 16.4256 11.6699 18.7043C11.6699 19.2149 12.0829 19.6294 12.593 19.6294C13.1031 19.6294 13.5161 19.2149 13.5161 18.7043C13.5161 17.4469 14.5325 16.4287 15.7855 16.4287C17.0385 16.4287 18.0549 17.4469 18.0549 18.7043Z" fill="#1F1F1F" stroke="#1F1F1F" stroke-width="0.25"/>
<path d="M17.4415 22.9503C17.1356 23.359 17.218 23.9385 17.6258 24.2453L17.6258 24.2453L17.6267 24.246C17.6267 24.246 17.6268 24.246 17.6269 24.2461C17.6296 24.2482 17.6614 24.2727 17.7162 24.3182C17.7731 24.3653 17.8535 24.4341 17.9497 24.5217C18.1422 24.6972 18.3967 24.9477 18.6503 25.2515C19.1614 25.8636 19.6511 26.6712 19.6511 27.5063C19.6511 28.3485 19.1616 29.1559 18.6509 29.7658C18.3974 30.0684 18.143 30.3175 17.9505 30.4919C17.8543 30.579 17.7738 30.6473 17.7169 30.6941C17.6885 30.7175 17.666 30.7355 17.6504 30.7478C17.637 30.7584 17.6293 30.7642 17.6274 30.7657C17.627 30.766 17.6269 30.7661 17.627 30.766L17.627 30.766L17.6258 30.7669C17.218 31.0737 17.1356 31.6536 17.4415 32.0619C17.7471 32.4707 18.326 32.554 18.734 32.247L18.734 32.2471L18.736 32.2455C19.6132 31.5566 20.3452 30.7007 20.8904 29.7277C21.9625 30.4845 23.2517 30.8727 24.5649 30.8321C25.8784 30.8735 27.1684 30.4856 28.2413 29.7292C28.7858 30.7018 29.5173 31.557 30.3937 32.2455L30.3937 32.2455L30.3958 32.247C30.8038 32.554 31.3827 32.4707 31.6883 32.0619C31.9942 31.6536 31.9118 31.0737 31.504 30.7669L31.5031 30.7662L31.5029 30.7661C31.5002 30.764 31.4684 30.7395 31.4136 30.694C31.3567 30.6469 31.2763 30.5781 31.1801 30.4904C30.9876 30.3149 30.7331 30.0645 30.4795 29.7608C29.9684 29.1487 29.4787 28.3412 29.4787 27.5063C29.4787 26.6638 29.9683 25.8564 30.4791 25.2465C30.7325 24.9438 30.987 24.6947 31.1795 24.5203C31.2757 24.4332 31.3561 24.3649 31.413 24.3181C31.4414 24.2947 31.4639 24.2767 31.4795 24.2643L31.4975 24.2502C31.5012 24.2474 31.5032 24.2459 31.5036 24.2456L31.5037 24.2455L31.4289 24.1455L31.504 24.2453C31.9118 23.9385 31.9942 23.359 31.6883 22.9503C31.3829 22.5416 30.8046 22.4588 30.3967 22.7645C30.3293 22.8135 29.6453 23.335 28.9752 24.1697C28.303 25.007 27.6324 26.1747 27.6324 27.5063C27.6324 27.6566 27.5642 27.8235 27.42 27.9943C27.2761 28.1647 27.0621 28.332 26.7872 28.4795C26.2376 28.7744 25.4602 28.9816 24.5649 28.9816C23.6696 28.9816 22.8922 28.7744 22.3426 28.4795C22.0677 28.332 21.8537 28.1647 21.7098 27.9943C21.5656 27.8235 21.4974 27.6566 21.4974 27.5063C21.4974 26.1739 20.8264 25.0062 20.154 24.1691C19.4823 23.3329 18.7969 22.8114 18.7334 22.7647M17.4415 22.9503L17.5415 23.0252L17.4414 22.9504C17.4414 22.9504 17.4414 22.9503 17.4415 22.9503ZM17.4415 22.9503C17.747 22.5415 18.3255 22.4587 18.7334 22.7647M18.7334 22.7647C18.7332 22.7645 18.733 22.7644 18.7328 22.7642L18.6588 22.865L18.7339 22.7651C18.7337 22.7649 18.7336 22.7648 18.7334 22.7647Z" fill="#1F1F1F" stroke="#1F1F1F" stroke-width="0.25"/>
<path d="M33.3444 14.5784L33.3441 14.5784C31.0719 14.5808 29.2315 16.4268 29.2286 18.7041V18.7043C29.2286 19.2149 29.6417 19.6294 30.1518 19.6294C30.6619 19.6294 31.0749 19.2149 31.0749 18.7043C31.0749 17.4469 32.0913 16.4287 33.3443 16.4287C34.5972 16.4287 35.6136 17.4469 35.6136 18.7043C35.6136 19.2149 36.0267 19.6294 36.5368 19.6294C37.0469 19.6294 37.4599 19.2149 37.4599 18.7043V18.7041C37.4571 16.4268 35.6167 14.5808 33.3444 14.5784Z" fill="#1F1F1F" stroke="#1F1F1F" stroke-width="0.25"/>
</g>
<defs>
<clipPath id="clip0">
<rect width="47.8876" height="48.0106" fill="white" transform="translate(0.621094 0.299438)"/>
</clipPath>
</defs>
</svg>
