<svg width="49" height="49" viewBox="0 0 49 49" fill="none" xmlns="http://www.w3.org/2000/svg">
<g clip-path="url(#clip0)">
<path d="M24.6062 6.39992C25.1265 6.39992 25.5482 5.97711 25.5482 5.45555V1.24356C25.5482 0.722007 25.1265 0.299194 24.6062 0.299194C24.086 0.299194 23.6643 0.722007 23.6643 1.24356V5.45555C23.6644 5.97711 24.0861 6.39992 24.6062 6.39992Z" fill="#1F1F1F"/>
<path d="M47.631 32.7425L45.967 31.0789C45.3751 30.4862 44.5862 30.1597 43.7455 30.1597C43.208 30.1597 42.692 30.2938 42.2347 30.545L39.099 27.405L39.2518 27.252C40.5239 25.9741 40.5234 23.8976 39.2517 22.624C38.7972 22.1675 38.2301 21.8631 37.612 21.735C37.6971 21.4405 37.7419 21.132 37.7419 20.8163C37.7419 19.939 37.402 19.1165 36.7868 18.5022C36.3322 18.0457 35.7652 17.7413 35.1471 17.6132C35.2322 17.3187 35.277 17.0103 35.277 16.6945C35.277 15.8172 34.9371 14.9947 34.3209 14.3795C33.8554 13.9134 33.2833 13.6184 32.6826 13.4929C33.0039 12.382 32.7293 11.1321 31.8576 10.2566C31.132 9.53227 30.1474 9.22095 29.1986 9.32184L22.9849 8.14268C22.0373 7.96245 20.8538 7.84327 20.1068 8.52639C20.0597 8.56952 20.0116 8.61913 19.9643 8.67436C18.806 8.25108 17.455 8.50313 16.5275 9.43203C15.9122 10.0482 15.5732 10.8704 15.5732 11.7471C15.5732 12.063 15.6178 12.3714 15.7029 12.666C15.0854 12.794 14.519 13.098 14.0661 13.553C13.4495 14.1686 13.1095 14.9898 13.1089 15.8655C13.1086 16.1821 13.1534 16.4916 13.2389 16.7869C12.6211 16.9146 12.0544 17.2181 11.6001 17.6731C10.9835 18.2905 10.644 19.1132 10.644 19.9895C10.644 20.6607 10.8439 21.3001 11.2143 21.8402C10.7466 21.9992 10.3182 22.2637 9.95955 22.6229C8.68661 23.8976 8.68614 25.9742 9.96039 27.254L10.1126 27.4059L6.9765 30.5443C5.81103 29.9942 4.37506 30.2003 3.41329 31.1633L1.74827 32.8279C1.15603 33.4209 0.829989 34.212 0.829895 35.0553C0.829895 35.8986 1.15603 36.6898 1.74827 37.2829L3.82622 39.3636C4.19426 39.7323 4.79071 39.7319 5.15828 39.3629C5.52595 38.9939 5.52557 38.3959 5.15753 38.0274L3.07957 35.9466C2.84369 35.7104 2.71378 35.3939 2.71378 35.0553C2.71378 34.7169 2.84369 34.4005 3.07901 34.1648L4.74413 32.5001C5.16015 32.0835 5.7969 32.0214 6.28045 32.3112C6.3145 32.3625 6.35387 32.4113 6.39895 32.4566C6.47967 32.5377 6.5718 32.5999 6.66963 32.6453L16.2184 42.2046C16.2638 42.3037 16.326 42.397 16.4073 42.4786C16.4865 42.558 16.5767 42.6195 16.6725 42.6647C16.8744 42.8936 16.986 43.1859 16.986 43.4978C16.986 43.8363 16.8561 44.1528 16.6202 44.389L14.9568 46.0548C14.4653 46.5454 13.6658 46.5453 13.1758 46.0563L11.0978 43.9728C10.73 43.604 10.1336 43.604 9.76576 43.9728C9.3979 44.3416 9.3979 44.9394 9.76576 45.3082L11.8452 47.3932C12.4573 48.0043 13.2611 48.3097 14.0652 48.3097C14.8696 48.3097 15.6743 48.0039 16.2871 47.3922L17.9516 45.7254C18.5438 45.1323 18.87 44.3413 18.87 43.4978C18.87 42.8959 18.703 42.3211 18.3926 41.8254L21.922 38.2912C21.9258 38.2873 21.9295 38.2835 21.9334 38.2797C22.3375 37.8608 23.463 37.9392 24.5514 38.0149C25.3247 38.0689 26.1868 38.1288 27.0292 38.0314L30.8942 41.9018C30.6438 42.3595 30.5102 42.8762 30.5102 43.4143C30.5102 44.2568 30.8363 45.0474 31.4285 45.6405L33.0931 47.3072C33.6849 47.9 34.4739 48.2265 35.3145 48.2265C36.1551 48.2265 36.944 47.9001 37.536 47.3072L47.6317 37.1978C48.2239 36.6048 48.55 35.8138 48.55 34.9704C48.55 34.1271 48.2238 33.3361 47.631 32.7425V32.7425ZM22.6342 9.9984L26.7202 10.7738L24.2745 13.2249C23.8962 13.0426 23.3777 12.7026 22.8088 12.157C22.0302 11.4102 21.4732 10.548 21.4225 10.0102C21.4224 10.0099 21.4224 10.0097 21.4224 10.0094C21.4224 10.0093 21.4223 10.0092 21.4223 10.0091C21.4187 9.97046 21.4177 9.93961 21.4182 9.91607C21.5414 9.88606 21.8685 9.85277 22.6342 9.9984ZM17.8587 10.7684C18.3359 10.2904 19.0772 10.2353 19.6164 10.6013C19.922 11.8858 21.0149 13.05 21.5066 13.5216C21.871 13.8712 23.0402 14.9193 24.2204 15.2074C24.38 15.4368 24.4669 15.7104 24.4669 15.999C24.4669 16.3708 24.3243 16.7184 24.0644 16.9787C23.8052 17.239 23.4579 17.3823 23.0864 17.3823C22.7148 17.3823 22.3675 17.239 22.1071 16.9775L22.107 16.9774L22.1066 16.9769L17.8586 12.7257C17.5996 12.4664 17.457 12.1188 17.457 11.7471C17.4571 11.3753 17.5997 11.0277 17.8587 10.7684V10.7684ZM15.3974 14.8893C15.6566 14.6291 16.0035 14.4857 16.3744 14.4857C16.7458 14.4857 17.0938 14.6294 17.3547 14.8906L20.7753 18.3131C21.3139 18.854 21.3139 19.7341 20.7771 20.2731C20.5166 20.5334 20.1681 20.6766 19.7959 20.6766C19.4238 20.6766 19.0753 20.5334 18.8158 20.2743L18.8157 20.2742L16.2207 17.6731C16.2167 17.669 16.2123 17.6653 16.2082 17.6612L15.3964 16.8476C15.1359 16.5867 14.9925 16.2385 14.9928 15.8669C14.9932 15.4966 15.1361 15.1502 15.3974 14.8893V14.8893ZM12.9314 19.0094C13.1907 18.7497 13.5384 18.6067 13.9104 18.6067C14.2794 18.6067 14.6241 18.7477 14.8823 19.0028L17.4853 21.6113C17.7448 21.8704 17.8878 22.2177 17.8878 22.589C17.8878 22.9602 17.7448 23.3075 17.4842 23.5677C17.225 23.8272 16.8777 23.9702 16.5063 23.9702C16.1343 23.9702 15.7859 23.8269 15.5263 23.5677L14.5826 22.6228C14.5825 22.6225 14.5822 22.6223 14.582 22.6221L12.9315 20.9693C12.6713 20.7087 12.528 20.3606 12.528 19.9893C12.528 19.6181 12.6713 19.2699 12.9314 19.0094V19.0094ZM11.2909 23.9592C11.5513 23.6983 11.8995 23.5547 12.2711 23.5547C12.6426 23.5547 12.9906 23.6982 13.251 23.9589L14.1959 24.9051C14.4555 25.1643 14.5985 25.5116 14.5985 25.8829C14.5985 26.2542 14.4554 26.6014 14.1939 26.8626C13.9348 27.1228 13.5875 27.2662 13.216 27.2662C12.8444 27.2662 12.4971 27.1229 12.2361 26.8607L12.1178 26.7426C12.1162 26.741 12.115 26.7393 12.1135 26.7378C12.1117 26.7361 12.1098 26.7346 12.108 26.7329L11.2918 25.9178C10.7532 25.3766 10.7527 24.4981 11.2909 23.9592ZM30.4864 34.692C30.1187 34.3229 29.5223 34.3226 29.1543 34.6911L28.3163 35.5303C27.52 36.3287 26.0771 36.2281 24.6817 36.1311C23.1665 36.0255 21.5996 35.9165 20.5856 36.9602L17.1161 40.4344L8.43997 31.7487L11.5104 28.6759C12.0179 28.9878 12.6035 29.155 13.2162 29.155C14.0915 29.155 14.9123 28.8148 15.5254 28.199C16.1426 27.5828 16.4826 26.7603 16.4826 25.883C16.4826 25.8748 16.4821 25.8668 16.4821 25.8586C16.4902 25.8587 16.4983 25.8592 16.5065 25.8592C17.3806 25.8592 18.2008 25.52 18.8147 24.9052C19.4319 24.289 19.7719 23.4664 19.7719 22.5892C19.7719 22.581 19.7713 22.573 19.7713 22.5648C19.7796 22.5648 19.7878 22.5654 19.7961 22.5654C20.67 22.5654 21.4906 22.2266 22.1086 21.6095C22.7503 20.9652 23.0676 20.1169 23.0615 19.2705C23.0699 19.2705 23.0784 19.271 23.0868 19.271C23.9621 19.2709 24.7828 18.9308 25.3969 18.3141C26.0122 17.6979 26.3512 16.8757 26.3512 15.999C26.3512 15.3858 26.1849 14.7997 25.8748 14.2919L28.566 11.5949C28.7665 11.3947 29.0138 11.2691 29.2729 11.2172C29.301 11.2142 29.3287 11.2097 29.3561 11.2043C29.7719 11.1468 30.2086 11.2755 30.5266 11.593C31.0653 12.1339 31.0653 13.0141 30.5286 13.5531L29.709 14.3714C29.7063 14.3741 29.7034 14.3766 29.7007 14.3793L28.7567 15.3241C28.3885 15.6926 28.3882 16.2906 28.7558 16.6596C29.1236 17.0287 29.7199 17.029 30.0879 16.6604L30.9107 15.8366C30.9109 15.8364 30.9111 15.8362 30.9113 15.836L31.0357 15.7118C31.5758 15.1752 32.4509 15.1763 32.9905 15.7165C33.2501 15.9757 33.3931 16.323 33.3931 16.6943C33.3931 17.0655 33.2501 17.4128 32.9884 17.674L32.1641 18.5021C32.164 18.5022 32.164 18.5023 32.1639 18.5025L31.22 19.445C30.8514 19.813 30.8501 20.411 31.2172 20.7804C31.5844 21.15 32.1807 21.1511 32.5493 20.7832L33.4975 19.8364C33.7567 19.5761 34.104 19.4328 34.4755 19.4328C34.8471 19.4328 35.1944 19.5761 35.4555 19.8382C35.7151 20.0975 35.858 20.4447 35.858 20.8161C35.858 21.1873 35.7151 21.5345 35.454 21.7952L33.8106 23.4434C33.4429 23.8123 33.443 24.4102 33.8108 24.7789C33.9948 24.9633 34.2357 25.0554 34.4768 25.0554C34.7179 25.0554 34.959 24.9631 35.1429 24.7786L35.9483 23.9709C35.9529 23.9665 35.9578 23.9626 35.9624 23.9581C36.2216 23.6977 36.5688 23.5545 36.9403 23.5545C37.3119 23.5545 37.6592 23.6977 37.9193 23.959C38.4574 24.4979 38.4569 25.3765 37.9193 25.9165L37.1005 26.7365C37.1002 26.7368 37.0998 26.737 37.0995 26.7373C37.0993 26.7376 37.099 26.738 37.0987 26.7383L35.799 28.0397C35.431 28.4083 35.4306 29.0063 35.7982 29.3753C35.9821 29.5599 36.2234 29.6523 36.4647 29.6523C36.7055 29.6523 36.9464 29.5602 37.1303 29.3761L37.766 28.7395L40.813 31.7907L32.1376 40.4778L29.0292 37.3652C29.2459 37.2255 29.4533 37.0612 29.6479 36.8661L30.4855 36.0274C30.8537 35.659 30.8541 35.061 30.4864 34.692V34.692ZM46.3003 35.8615L36.2045 45.9709C35.9684 46.2074 35.6523 46.3377 35.3144 46.3377C34.9766 46.3377 34.6605 46.2074 34.4242 45.9708L32.7596 44.3041C32.5238 44.0679 32.3939 43.7519 32.3939 43.4143C32.3939 43.0767 32.5238 42.7607 32.7596 42.5245L42.8554 32.415C43.0916 32.1785 43.4077 32.0482 43.7456 32.0482C44.0834 32.0482 44.3996 32.1785 44.6364 32.4156L46.3004 34.0792C46.5363 34.3154 46.6662 34.6318 46.6662 34.9703C46.6661 35.3089 46.5362 35.6254 46.3003 35.8615V35.8615Z" fill="#1F1F1F"/>
<path d="M12.0986 5.60374C12.2824 5.78772 12.5232 5.87961 12.7639 5.87961C13.0052 5.87961 13.2466 5.78716 13.4306 5.60233C13.7981 5.23316 13.7975 4.63528 13.4293 4.26685L9.99694 0.832498C9.6288 0.464073 9.03236 0.464542 8.66488 0.833811C8.2974 1.20299 8.29797 1.80087 8.66619 2.16929L12.0986 5.60374Z" fill="#1F1F1F"/>
<path d="M36.4486 5.87958C36.6894 5.87958 36.9303 5.7875 37.1142 5.60342L40.544 2.16898C40.912 1.80046 40.9124 1.20248 40.5447 0.833494C40.1772 0.464506 39.5808 0.464131 39.2127 0.832744L35.7829 4.26719C35.4149 4.63571 35.4145 5.23369 35.7822 5.60267C35.9661 5.78731 36.2074 5.87958 36.4486 5.87958Z" fill="#1F1F1F"/>
<path d="M6.6216 40.9211C6.25693 41.2929 6.26198 41.8907 6.63301 42.2562L6.63572 42.2589C6.81876 42.4392 7.05642 42.5291 7.29399 42.5291C7.53782 42.5291 7.78165 42.4345 7.96637 42.2461C8.33105 41.8743 8.32459 41.2751 7.95365 40.9096C7.58281 40.5441 6.98646 40.5492 6.6216 40.9211V40.9211Z" fill="#1F1F1F"/>
<path d="M32.7901 33.3311C32.9334 33.3311 33.0787 33.2984 33.2152 33.2295C33.6797 32.9947 33.8662 32.4269 33.6321 31.9613C33.3978 31.4958 32.8312 31.3087 32.3669 31.5435L32.3616 31.5461C31.8972 31.781 31.7132 32.3474 31.9474 32.813C32.1128 33.1419 32.4453 33.3311 32.7901 33.3311V33.3311Z" fill="#1F1F1F"/>
</g>
<defs>
<clipPath id="clip0">
<rect width="47.8874" height="48.0106" fill="white" transform="translate(0.746094 0.299194)"/>
</clipPath>
</defs>
</svg>
