<svg width="54" height="55" viewBox="0 0 54 55" fill="none" xmlns="http://www.w3.org/2000/svg">
<g filter="url(#filter0_d)">
<path d="M48.4039 7.30313C47.9553 6.51589 47.3404 5.83595 46.602 5.3107C45.8637 4.78546 45.0197 4.42753 44.1289 4.26188L43.65 2.283C43.6297 2.19903 43.593 2.11989 43.542 2.05012C43.4911 1.98036 43.4268 1.92135 43.353 1.87647C43.2792 1.8316 43.1972 1.80174 43.1118 1.78862C43.0264 1.7755 42.9393 1.77937 42.8554 1.8L39.1804 2.68988C39.0113 2.73093 38.8653 2.83744 38.7747 2.98602C38.6841 3.1346 38.6561 3.31308 38.697 3.48225L39.0473 4.92863L14.6625 10.8334C14.4938 10.8748 14.3484 10.9813 14.2581 11.1297C14.1678 11.278 14.1399 11.4561 14.1806 11.625L14.4158 12.5959L9.98775 13.6684C9.81862 13.7094 9.6727 13.8159 9.58207 13.9645C9.49143 14.1131 9.46348 14.2916 9.50438 14.4608L9.85125 15.8933L5.28525 16.9984C5.20148 17.0187 5.12252 17.0552 5.05289 17.106C4.98326 17.1568 4.92432 17.2209 4.87943 17.2944C4.83455 17.368 4.80459 17.4497 4.79129 17.5349C4.77798 17.62 4.78158 17.707 4.80188 17.7908L5.64563 21.2745C5.68025 21.4175 5.76192 21.5448 5.87752 21.6358C5.99313 21.7269 6.13597 21.7765 6.28313 21.7766C6.3353 21.7764 6.38728 21.7701 6.438 21.7579L11.0036 20.6528L11.3494 22.0808C11.384 22.2238 11.4657 22.351 11.5813 22.4421C11.6969 22.5331 11.8397 22.5827 11.9869 22.5829C12.0391 22.5829 12.0911 22.5766 12.1418 22.5641L16.5701 21.4924L16.8056 22.4636C16.8404 22.6066 16.9221 22.7337 17.0377 22.8246C17.1533 22.9156 17.296 22.9652 17.4431 22.9654C17.4953 22.9654 17.5473 22.9591 17.598 22.9466L24.1568 21.3574C24.2356 21.7338 24.3885 22.0907 24.6068 22.4074L14.1589 43.6522C14.0258 43.9237 13.9639 44.2246 13.9792 44.5265C13.9944 44.8285 14.0862 45.1216 14.2459 45.3783C14.4057 45.635 14.6281 45.8468 14.8923 45.9938C15.1564 46.1409 15.4537 46.2183 15.756 46.2187C16.0886 46.2172 16.4142 46.1232 16.6964 45.9472C16.9786 45.7711 17.2063 45.5201 17.3539 45.222L25.221 29.2219V44.4375C25.221 44.9099 25.4087 45.363 25.7427 45.697C26.0768 46.0311 26.5298 46.2187 27.0023 46.2187C27.4747 46.2187 27.9277 46.0311 28.2618 45.697C28.5958 45.363 28.7835 44.9099 28.7835 44.4375V29.2219L36.6506 45.222C36.7984 45.5203 37.0262 45.7715 37.3087 45.9476C37.5912 46.1236 37.9172 46.2175 38.25 46.2187C38.5219 46.2198 38.7902 46.1572 39.0334 46.0357C39.2435 45.9329 39.4312 45.7897 39.5859 45.6143C39.7405 45.4388 39.859 45.2346 39.9347 45.0132C40.0103 44.7919 40.0415 44.5578 40.0266 44.3244C40.0116 44.091 39.9508 43.8629 39.8475 43.653L29.4 22.4059C29.6404 22.0576 29.801 21.6606 29.8704 21.2432C29.9397 20.8258 29.9161 20.3981 29.8013 19.9909L41.9816 17.0374L42.3326 18.4856C42.3737 18.6548 42.4802 18.8007 42.6288 18.8913C42.7774 18.9819 42.9558 19.0099 43.125 18.969L46.8 18.0788C46.8838 18.0585 46.9628 18.022 47.0325 17.9712C47.1021 17.9204 47.1611 17.8564 47.206 17.7828C47.2509 17.7092 47.2808 17.6275 47.2941 17.5423C47.3074 17.4571 47.3037 17.3701 47.2834 17.2864L46.8045 15.3086C47.9879 14.3886 48.8007 13.0735 49.0944 11.6036C49.3881 10.1337 49.143 8.60721 48.4039 7.30313V7.30313ZM6.76688 20.3276L6.23213 18.1196L10.1599 17.169L10.6946 19.377L6.76688 20.3276ZM12.4706 21.1343L12.1286 19.7216C12.1286 19.7164 12.1286 19.7111 12.1264 19.7059C12.1241 19.7006 12.1226 19.6958 12.1211 19.6905L11.2845 16.2375C11.2845 16.2326 11.2845 16.2281 11.2845 16.2236C11.2845 16.2191 11.2811 16.215 11.28 16.2101L10.9361 14.7911L14.7266 13.8739L16.2641 20.2181L12.4706 21.1343ZM28.335 19.8967C28.5352 20.2014 28.6241 20.5657 28.587 20.9283C28.5498 21.2909 28.3888 21.6296 28.131 21.8873L28.1276 21.8914C27.9798 22.0394 27.8043 22.1568 27.611 22.2369C27.4178 22.317 27.2107 22.3583 27.0015 22.3583C26.7923 22.3583 26.5852 22.317 26.392 22.2369C26.1987 22.1568 26.0232 22.0394 25.8754 21.8914L25.872 21.8873C25.7144 21.7294 25.5916 21.5401 25.5118 21.3318C25.432 21.1235 25.3969 20.9007 25.4087 20.6779C25.4205 20.4551 25.479 20.2373 25.5804 20.0385C25.6818 19.8398 25.8238 19.6646 25.9972 19.5243C26.1707 19.384 26.3717 19.2816 26.5872 19.224C26.8027 19.1663 27.028 19.1546 27.2483 19.1896C27.4687 19.2246 27.6792 19.3055 27.8663 19.427C28.0533 19.5486 28.2128 19.7081 28.3343 19.8953L28.335 19.8967ZM16.1756 44.6434C16.1348 44.7263 16.0702 44.7953 15.9902 44.8416C15.9102 44.8879 15.8183 44.9094 15.726 44.9035C15.6337 44.8976 15.5453 44.8645 15.4718 44.8084C15.3983 44.7523 15.3431 44.6757 15.3131 44.5882C15.2932 44.5303 15.2849 44.4689 15.2889 44.4078C15.2929 44.3466 15.309 44.2869 15.3364 44.232L25.221 24.1275V26.2478L16.1756 44.6434ZM27.0023 44.9059C26.878 44.9058 26.7588 44.8564 26.6709 44.7685C26.583 44.6806 26.5336 44.5614 26.5335 44.4371V23.6306C26.8436 23.6856 27.1609 23.6856 27.471 23.6306V44.4375C27.4709 44.5618 27.4215 44.681 27.3336 44.7688C27.2457 44.8567 27.1265 44.9061 27.0023 44.9062V44.9059ZM38.6914 44.5879C38.6712 44.6469 38.6395 44.7013 38.598 44.7478C38.5565 44.7944 38.5062 44.8322 38.4499 44.859C38.3383 44.9094 38.2116 44.9151 38.096 44.8748C37.9804 44.8346 37.8846 44.7514 37.8285 44.6426L28.7835 26.2478V24.1275L38.6685 44.2331C38.6956 44.2877 38.7116 44.3472 38.7155 44.408C38.7194 44.4689 38.7112 44.5299 38.6914 44.5875V44.5879ZM27.0023 17.8594C26.3661 17.8605 25.7478 18.0701 25.2422 18.4562C24.7366 18.8423 24.3715 19.3835 24.2029 19.9969L17.925 21.5167L15.8453 12.9293V12.9263V12.9229L15.6109 11.955L39.357 6.204L41.6719 15.7616L29.1375 18.801C28.8664 18.5045 28.5365 18.2677 28.1689 18.1056C27.8013 17.9435 27.404 17.8596 27.0023 17.8594V17.8594ZM43.4531 17.5388L40.4831 5.27625C40.4831 5.2695 40.4831 5.26275 40.4801 5.256C40.4771 5.24925 40.4753 5.24363 40.4738 5.23725L40.128 3.81225L42.528 3.231L45.8535 16.959L43.4531 17.5388ZM44.4769 5.70525C45.2831 5.95974 46.01 6.41809 46.5872 7.03593C47.1643 7.65376 47.5721 8.41015 47.7712 9.23185C47.9702 10.0536 47.9537 10.9127 47.7232 11.7262C47.4928 12.5396 47.0562 13.2798 46.4558 13.875L44.4769 5.70525Z" fill="#1F1F1F"/>
<path d="M31.8881 8.97822L26.8478 10.2C26.7618 10.2181 26.6804 10.2533 26.6083 10.3035C26.5362 10.3536 26.4749 10.4178 26.428 10.4921C26.3812 10.5664 26.3497 10.6493 26.3355 10.736C26.3213 10.8227 26.3246 10.9113 26.3453 10.9967C26.366 11.082 26.4036 11.1624 26.4559 11.233C26.5083 11.3035 26.5742 11.3629 26.6499 11.4075C26.7255 11.4521 26.8094 11.481 26.8965 11.4926C26.9835 11.5042 27.072 11.4982 27.1567 11.475L32.1975 10.2536C32.2833 10.2353 32.3645 10.2 32.4364 10.1497C32.5083 10.0995 32.5694 10.0353 32.6161 9.96107C32.6627 9.88681 32.6941 9.80395 32.7082 9.71739C32.7223 9.63082 32.7189 9.5423 32.6982 9.45707C32.6775 9.37184 32.64 9.29161 32.5878 9.22114C32.5355 9.15067 32.4697 9.09138 32.3942 9.04677C32.3187 9.00216 32.235 8.97315 32.1481 8.96144C32.0612 8.94973 31.9728 8.95557 31.8881 8.9786V8.97822Z" fill="#1F1F1F"/>
<path d="M36.7688 8.47125C36.7487 8.38734 36.7123 8.30823 36.6615 8.23845C36.6108 8.16868 36.5468 8.10962 36.4731 8.06466C36.3995 8.01971 36.3177 7.98975 36.2325 7.97651C36.1472 7.96327 36.0602 7.967 35.9764 7.9875L34.4764 8.3505C34.3904 8.36862 34.309 8.40381 34.2369 8.45398C34.1648 8.50415 34.1035 8.56829 34.0566 8.64258C34.0098 8.71688 33.9783 8.79983 33.9641 8.88651C33.9499 8.97319 33.9533 9.06184 33.974 9.14721C33.9946 9.23257 34.0323 9.31291 34.0846 9.38347C34.1369 9.45403 34.2028 9.51337 34.2785 9.55798C34.3542 9.60258 34.438 9.63154 34.5251 9.64314C34.6122 9.65474 34.7007 9.64874 34.7854 9.6255L36.2835 9.2625C36.3674 9.24246 36.4464 9.20609 36.5162 9.15547C36.586 9.10484 36.6451 9.04096 36.6902 8.96747C36.7352 8.89398 36.7654 8.81233 36.7789 8.72718C36.7924 8.64204 36.7889 8.55507 36.7688 8.47125V8.47125Z" fill="#1F1F1F"/>
</g>
<defs>
<filter id="filter0_d" x="-1" y="0" width="56" height="56" filterUnits="userSpaceOnUse" color-interpolation-filters="sRGB">
<feFlood flood-opacity="0" result="BackgroundImageFix"/>
<feColorMatrix in="SourceAlpha" type="matrix" values="0 0 0 0 0 0 0 0 0 0 0 0 0 0 0 0 0 0 127 0"/>
<feOffset dy="4"/>
<feGaussianBlur stdDeviation="2"/>
<feColorMatrix type="matrix" values="0 0 0 0 0 0 0 0 0 0 0 0 0 0 0 0 0 0 0.25 0"/>
<feBlend mode="normal" in2="BackgroundImageFix" result="effect1_dropShadow"/>
<feBlend mode="normal" in="SourceGraphic" in2="effect1_dropShadow" result="shape"/>
</filter>
</defs>
</svg>
