<svg width="49" height="49" viewBox="0 0 49 49" fill="none" xmlns="http://www.w3.org/2000/svg">
<g clip-path="url(#clip0)">
<path d="M46.7977 12.3907L26.2227 0.812577C25.0084 0.128067 23.526 0.128067 22.3121 0.812577L1.7367 12.3907C0.889101 12.8654 0.411329 13.8058 0.52668 14.772C0.642031 15.7386 1.32829 16.5391 2.26357 16.7997C2.47713 16.8564 2.69692 16.8861 2.91788 16.8876C3.32707 16.8888 3.72924 16.781 4.08308 16.5755L24.2672 5.22126L44.4514 16.5755C45.0043 16.8892 45.659 16.9701 46.2713 16.7997C47.2065 16.5391 47.8924 15.7386 48.0078 14.772C48.1235 13.8058 47.6453 12.8654 46.7977 12.3907ZM46.3188 14.879C46.1025 15.2631 45.617 15.3991 45.2335 15.1834L25.0653 3.82099C24.5716 3.53499 23.9629 3.53499 23.4691 3.82099L3.30096 15.1834C2.91554 15.4041 2.42413 15.2697 2.20356 14.8833C1.98338 14.4965 2.11744 14.0039 2.50285 13.7831L23.0942 2.20465C23.8226 1.79402 24.7119 1.79402 25.4406 2.20465L46.0156 13.7831C46.2019 13.887 46.3387 14.0617 46.3956 14.2676C46.4525 14.4735 46.4248 14.6938 46.3188 14.879V14.879Z" fill="#1F1F1F"/>
<path d="M5.11219 18.2797C4.67144 18.2797 4.31409 18.6379 4.31409 19.0798V47.5096C4.31409 47.9515 4.67144 48.3098 5.11219 48.3098C5.55294 48.3098 5.9103 47.9515 5.9103 47.5096V19.0798C5.9103 18.6379 5.55294 18.2797 5.11219 18.2797V18.2797Z" fill="#1F1F1F"/>
<path d="M43.4213 18.2797C42.9806 18.2797 42.6232 18.6379 42.6232 19.0798V47.5096C42.6232 47.9515 42.9806 48.3098 43.4213 48.3098C43.8621 48.3098 44.2194 47.9515 44.2194 47.5096V19.0798C44.2194 18.6379 43.8621 18.2797 43.4213 18.2797V18.2797Z" fill="#1F1F1F"/>
<path d="M40.2289 17.1038H8.30464C7.86389 17.1038 7.50653 17.462 7.50653 17.9039V47.5098C7.50653 47.9516 7.86389 48.3099 8.30464 48.3099C8.74539 48.3099 9.10274 47.9516 9.10274 47.5098V21.9047H39.4308V47.5098C39.4308 47.9516 39.7881 48.3099 40.2289 48.3099C40.6696 48.3099 41.027 47.9516 41.027 47.5098V17.9039C41.027 17.462 40.6696 17.1038 40.2289 17.1038V17.1038ZM9.10274 20.3044V18.7041H39.4308V20.3044H9.10274Z" fill="#1F1F1F"/>
<path d="M30.6516 12.3028C31.0924 12.3028 31.4497 11.9446 31.4497 11.5027C31.4497 11.0608 31.0924 10.7025 30.6516 10.7025H17.8819C17.4412 10.7025 17.0838 11.0608 17.0838 11.5027V14.7033C17.0838 15.1452 17.4412 15.5035 17.8819 15.5035H30.6516C31.0924 15.5035 31.4497 15.1452 31.4497 14.7033C31.4497 14.2614 31.0924 13.9032 30.6516 13.9032H18.68V12.3028H30.6516Z" fill="#1F1F1F"/>
<path d="M37.0364 43.5089H36.2383V34.7072C36.2383 34.2653 35.881 33.9071 35.4402 33.9071H33.0459V25.1053C33.0459 24.6634 32.6886 24.3052 32.2478 24.3052H21.0743C20.6336 24.3052 20.2762 24.6634 20.2762 25.1053V29.1061H16.2857C15.8449 29.1061 15.4876 29.4644 15.4876 29.9063V33.9071H13.0933C12.6525 33.9071 12.2952 34.2653 12.2952 34.7072V43.5089H11.4971C11.0563 43.5089 10.6989 43.8672 10.6989 44.3091V47.5097C10.6989 47.9516 11.0563 48.3099 11.4971 48.3099C11.9378 48.3099 12.2952 47.9516 12.2952 47.5097V45.1093H14.6895V47.5097C14.6895 47.9516 15.0468 48.3099 15.4876 48.3099C15.9283 48.3099 16.2857 47.9516 16.2857 47.5097V45.1093H17.8819V47.5097C17.8819 47.9516 18.2393 48.3099 18.68 48.3099C19.1208 48.3099 19.4781 47.9516 19.4781 47.5097V45.1093H21.8724V47.5097C21.8724 47.9516 22.2298 48.3099 22.6705 48.3099C23.1113 48.3099 23.4686 47.9516 23.4686 47.5097V45.1093H25.0649V47.5097C25.0649 47.9516 25.4222 48.3099 25.863 48.3099C26.3037 48.3099 26.6611 47.9516 26.6611 47.5097V45.1093H29.0554V47.5097C29.0554 47.9516 29.4127 48.3099 29.8535 48.3099C30.2942 48.3099 30.6516 47.9516 30.6516 47.5097V45.1093H32.2478V47.5097C32.2478 47.9516 32.6052 48.3099 33.0459 48.3099C33.4867 48.3099 33.844 47.9516 33.844 47.5097V45.1093H36.2383V47.5097C36.2383 47.9516 36.5957 48.3099 37.0364 48.3099C37.4772 48.3099 37.8346 47.9516 37.8346 47.5097V44.3091C37.8346 43.8672 37.4772 43.5089 37.0364 43.5089ZM29.0554 35.5074H30.6516V37.1077H29.0554V35.5074ZM27.4592 25.9055V27.5058H25.863V25.9055H27.4592ZM21.8724 25.9055H24.2667V28.306C24.2667 28.7478 24.6241 29.1061 25.0649 29.1061H28.2573C28.698 29.1061 29.0554 28.7478 29.0554 28.306V25.9055H31.4497V33.9071H21.8724V25.9055ZM17.8819 35.5074H19.4781V37.1077H17.8819V35.5074ZM17.0838 30.7064H20.2762V33.9071H17.0838V30.7064ZM13.8914 43.5089V35.5074H16.2857V37.9078C16.2857 38.3497 16.643 38.708 17.0838 38.708H20.2762C20.717 38.708 21.0743 38.3497 21.0743 37.9078V35.5074H23.4686V43.5089H13.8914ZM25.0649 43.5089V35.5074H27.4592V37.9078C27.4592 38.3497 27.8165 38.708 28.2573 38.708H31.4497C31.8905 38.708 32.2478 38.3497 32.2478 37.9078V35.5074H34.6421V43.5089H25.0649Z" fill="#1F1F1F"/>
</g>
<defs>
<clipPath id="clip0">
<rect width="47.8875" height="48.0106" fill="white" transform="translate(0.308594 0.299194)"/>
</clipPath>
</defs>
</svg>
