<svg width="49" height="49" viewBox="0 0 49 49" fill="none" xmlns="http://www.w3.org/2000/svg">
<g clip-path="url(#clip0)">
<path d="M28.5259 6.07371C28.0229 5.95228 27.5185 6.26219 27.3975 6.76555C27.2764 7.269 27.5854 7.77555 28.0875 7.89689C35.6683 9.72907 40.9628 16.4762 40.9628 24.3047C40.9628 33.6116 33.4105 41.1834 24.1274 41.1834C14.8442 41.1834 7.29199 33.6116 7.29199 24.3047C7.29199 16.4765 12.5862 9.72935 20.1666 7.89698C20.6687 7.77555 20.9777 7.269 20.8566 6.76564C20.7355 6.26219 20.2301 5.95265 19.7282 6.0738C15.7176 7.04329 12.0841 9.36758 9.49695 12.6185C6.8307 15.9688 5.42139 20.0099 5.42139 24.3047C5.42139 34.6457 13.8129 43.0588 24.1274 43.0588C34.4418 43.0588 42.8334 34.6458 42.8334 24.3047C42.8334 20.0098 41.424 15.9686 38.7576 12.6182C36.1704 9.36739 32.5366 7.04311 28.5259 6.07371V6.07371Z" fill="#1F1F1F"/>
<path d="M47.5071 22.0493L46.4128 20.0026L46.5953 17.4723C46.7708 15.8504 46.1255 14.2676 44.867 13.2353L43.0506 11.7442L42.3362 9.58636C41.936 7.93647 40.6862 6.61037 39.0646 6.1193L36.8226 5.44021L35.1055 3.4504C34.0896 2.2523 32.5519 1.6291 30.9919 1.78279L28.6649 2.01525L26.3774 0.86478C24.9677 0.111335 23.287 0.110679 21.8771 0.864686L19.8358 1.96161L17.312 1.77857C15.6937 1.60266 14.1155 2.24967 13.086 3.51135L11.5986 5.33238L9.44636 6.04869C7.8006 6.44984 6.4779 7.70289 5.98809 9.32859L5.31084 11.5764L3.32613 13.2979C2.13119 14.3164 1.50922 15.8578 1.6627 17.4221L1.89456 19.7551L0.747044 22.0484C-0.00456232 23.4618 -0.00512346 25.1468 0.746857 26.5604L1.84106 28.607L1.65849 31.1373C1.48312 32.7592 2.12839 34.3419 3.38683 35.3742L5.20318 36.8654L5.91766 39.0232C6.31769 40.6731 7.56753 41.9992 9.18924 42.4903L11.4312 43.1693L13.1483 45.1592C14.1643 46.3572 15.7014 46.9808 17.2619 46.8268L19.5888 46.5943L21.8761 47.7446C22.5812 48.1216 23.3542 48.3101 24.1271 48.3101C24.8995 48.3101 25.6718 48.1219 26.3766 47.745L28.4181 46.6481L30.9418 46.8311C32.5594 47.0066 34.1382 46.36 35.1679 45.0983L36.6552 43.2773L38.8076 42.5611C40.4532 42.1599 41.7758 40.9069 42.2656 39.2811L42.943 37.0334L44.9278 35.3119C46.1227 34.2934 46.7447 32.752 46.5912 31.1876L46.3593 28.8548L47.5067 26.5614C48.2583 25.1479 48.259 23.4629 47.5071 22.0493V22.0493ZM45.852 25.6863C45.8479 25.694 45.8439 25.7016 45.8401 25.7093L44.5656 28.2566C44.4862 28.4153 44.4534 28.5933 44.4709 28.7701L44.7297 31.3722C44.823 32.3237 44.4441 33.2623 43.71 33.8882L41.5141 35.7928C41.3802 35.909 41.282 36.0608 41.2308 36.2307L40.475 38.7386C40.1737 39.7386 39.3553 40.5074 38.3391 40.7449C38.3113 40.7514 38.2838 40.7592 38.2568 40.7682L35.8087 41.5828C35.6406 41.6388 35.4918 41.7413 35.3797 41.8787L33.7205 43.9103C33.0903 44.6826 32.1221 45.077 31.1315 44.9653C31.1191 44.9639 31.1067 44.9627 31.0944 44.9618L28.2827 44.7579C28.1057 44.7452 27.9295 44.7829 27.7735 44.8667L25.4947 46.0912C24.6353 46.5506 23.6089 46.5488 22.7489 46.0858C22.7413 46.0818 22.7336 46.0778 22.7259 46.0739L20.1853 44.7962C20.0547 44.7306 19.911 44.6966 19.7659 44.6966C19.735 44.6966 19.7041 44.6981 19.6731 44.7012L17.0777 44.9605C16.1287 45.0544 15.1924 44.6742 14.5681 43.9383L12.6684 41.7368C12.5526 41.6025 12.4011 41.5039 12.2315 41.4526L9.73003 40.6951C8.73254 40.393 7.96578 39.5724 7.72887 38.5535C7.72241 38.5257 7.71465 38.4982 7.70567 38.471L6.89318 36.0166C6.83743 35.8481 6.73511 35.699 6.59809 35.5865L4.57176 33.923C3.80145 33.2911 3.40806 32.3208 3.51955 31.3274C3.52095 31.315 3.52208 31.3026 3.52301 31.2902L3.72635 28.4712C3.73916 28.2941 3.70147 28.1171 3.61785 27.9606L2.39644 25.6761C1.93815 24.8146 1.94011 23.7855 2.40168 22.9233C2.4058 22.9157 2.40973 22.908 2.41356 22.9003L3.688 20.3531C3.76741 20.1944 3.80024 20.0163 3.78265 19.8397L3.52404 17.2374C3.4307 16.2859 3.80959 15.3472 4.5437 14.7214L6.7396 12.8168C6.87354 12.7006 6.97174 12.5488 7.023 12.3788L7.77872 9.87086C8.07998 8.87089 8.89846 8.10216 9.91475 7.86455C9.94253 7.85808 9.96994 7.8503 9.99706 7.8413L12.445 7.02662C12.6131 6.97073 12.7618 6.86815 12.8739 6.73077L14.5334 4.69914C15.1636 3.92695 16.1317 3.53273 17.1223 3.64432C17.1346 3.64573 17.147 3.64685 17.1593 3.64779L19.971 3.85165C20.1471 3.86421 20.3242 3.8267 20.4803 3.74287L22.7589 2.51842C23.6182 2.05895 24.6447 2.06082 25.5046 2.52367C25.5122 2.5277 25.5198 2.53174 25.5276 2.53558L28.0684 3.8133C28.2266 3.89291 28.4042 3.92591 28.5804 3.90819L31.176 3.64892C32.1249 3.55515 33.0613 3.9352 33.6855 4.6712L35.5853 6.87274C35.701 7.00702 35.8526 7.10548 36.0221 7.15687L38.5236 7.91453C39.521 8.21656 40.2878 9.03724 40.5248 10.0561C40.5312 10.0839 40.539 10.1114 40.548 10.1386L41.3605 12.5928C41.4164 12.7613 41.5186 12.9104 41.6556 13.0229L43.6821 14.6864C44.4524 15.3183 44.8457 16.2885 44.7342 17.282C44.7328 17.2944 44.7316 17.3068 44.7308 17.3192L44.5275 20.1382C44.5147 20.3153 44.5523 20.4923 44.6359 20.6488L45.8573 22.9334C46.3157 23.7951 46.3137 24.8241 45.852 25.6863V25.6863Z" fill="#1F1F1F"/>
<path d="M20.0683 19.1957C19.9183 18.8788 19.597 18.6591 19.2238 18.6591H14.282C13.7654 18.6591 13.3467 19.0789 13.3467 19.5968V33.7904C13.3467 34.3083 13.7654 34.7281 14.282 34.7281H19.2238C19.6115 34.7281 19.944 34.4917 20.0858 34.1548C20.7988 34.2552 21.5333 34.4585 22.298 34.6708C23.4476 34.9899 24.6363 35.3198 25.8714 35.3198H31.2708C32.9399 35.3198 34.2924 34.4327 34.8889 32.9465C35.1794 32.2224 35.2303 31.4709 35.0605 30.8418C35.371 30.5619 35.6335 30.2135 35.8319 29.8066C36.2342 28.9822 36.3145 28.0551 36.0865 27.2742C36.5115 26.8626 36.8286 26.319 36.9943 25.6781C37.1493 25.0789 37.1466 24.4877 37.0087 23.9754C37.8524 23.4779 38.4206 22.5739 38.4206 21.5554C38.4206 20.7565 38.1103 20.0204 37.5469 19.4828C37.0059 18.9665 36.2854 18.6821 35.518 18.6821L27.9074 18.6822C27.3292 17.9551 27.1493 16.9682 27.4785 16.1739C28.1542 14.5436 28.1123 13.1636 27.343 11.6994C26.7719 10.6127 25.2363 9.53082 23.9457 9.71555C23.1655 9.82732 22.6011 10.3801 22.4355 11.1944C22.3868 11.434 22.3734 11.6928 22.358 11.9925C22.3198 12.7318 22.2675 13.7443 21.6309 14.967C21.1995 15.7958 21.0555 16.6483 20.9285 17.4004C20.7466 18.4778 20.6584 18.9968 20.0683 19.1957V19.1957ZM15.2173 20.5345H18.2885V32.8527H15.2173V20.5345ZM22.7729 17.7134C22.8819 17.0682 22.9945 16.4009 23.2893 15.8348C24.1145 14.2497 24.1844 12.8975 24.2262 12.0895C24.2373 11.8743 24.2478 11.671 24.2685 11.5688C24.2686 11.5682 24.2688 11.5674 24.269 11.5668C24.5935 11.5713 25.3919 12.0104 25.688 12.5738C26.2003 13.5486 26.2173 14.3294 25.7512 15.4545C25.3308 16.4689 25.3624 17.646 25.7782 18.6926C25.3232 18.756 24.9726 19.1466 24.9726 19.6202C24.9726 20.138 25.3915 20.5579 25.9079 20.5579L35.518 20.5577C35.803 20.5577 36.0656 20.6584 36.2571 20.8412C36.3908 20.9686 36.55 21.1961 36.55 21.5555C36.55 22.0584 36.0901 22.4934 35.5456 22.5053L33.1383 22.5578C32.6219 22.569 32.2123 22.9978 32.2235 23.5156C32.2347 24.0265 32.6511 24.433 33.1583 24.433C33.1651 24.433 33.172 24.433 33.179 24.4328L35.184 24.3891C35.2493 24.5749 35.2834 24.9292 35.1457 25.3352C35.0285 25.6804 34.714 26.2595 33.9227 26.2595C33.4062 26.2595 32.9874 26.6794 32.9874 27.1973C32.9874 27.7151 33.4062 28.135 33.9227 28.135C34.0645 28.135 34.2037 28.1261 34.3398 28.1088C34.3514 28.3742 34.297 28.685 34.1518 28.9826C33.98 29.3345 33.6406 29.754 32.9988 29.754C32.4823 29.754 32.0635 30.1738 32.0635 30.6917C32.0635 31.2096 32.4823 31.6294 32.9988 31.6294C33.0956 31.6294 33.1914 31.6251 33.286 31.6166C33.2835 31.7965 33.247 32.0215 33.145 32.2675C32.9984 32.6214 32.522 33.4444 31.2709 33.4444H25.8716C24.8907 33.4444 23.8738 33.1622 22.7973 32.8633C21.9407 32.6255 21.0623 32.3819 20.1593 32.2731V21.0936C22.265 20.711 22.5554 19.0019 22.7729 17.7134V17.7134Z" fill="#1F1F1F"/>
<path d="M24.1275 7.42566C24.6441 7.42566 25.0628 7.00594 25.0628 6.48816C25.0628 5.97038 24.6441 5.55066 24.1275 5.55066H24.1269C23.6103 5.55066 23.192 5.97038 23.192 6.48816C23.192 7.00594 23.611 7.42566 24.1275 7.42566Z" fill="#1F1F1F"/>
</g>
<defs>
<clipPath id="clip0">
<rect width="47.8875" height="48.0106" fill="white" transform="translate(0.183594 0.299438)"/>
</clipPath>
</defs>
</svg>
